<svg xmlns="http://www.w3.org/2000/svg" id="Layer_1" data-name="Layer 1" viewBox="67.43 243.15 2868.9 573.61">
  <defs>
    <style>
      .cls-1 {
        fill: #fff;
      }

      .cls-2 {
        fill: #4385f3;
      }

      .cls-3 {
        fill: #109d58;
      }

      .cls-4 {
        fill: #fabc05;
      }

      .cls-5 {
        fill: #e94436;
      }
    </style>
  </defs>
  <g>
    <path class="cls-4" d="M830.3,523.37c55.75-32.02,111.35-64.3,167.28-95.99,53.09-30.08,115.56-2.34,127.6,56.2,6.97,33.86-8.15,70.45-38.73,88.27-100.24,58.41-200.62,116.59-301.5,173.89-31.22,17.73-63.39,14.47-91.84-7.26-28.91-22.06-38.02-52.49-31.24-87.91,7.74-26.96,25.45-44.99,49.61-58.47,39.94-22.29,79.24-45.76,118.81-68.73"/>
    <path class="cls-3" d="M871.23,500.09c-55.61-32.27-111.35-64.28-166.77-96.88-52.6-30.94-59.8-98.91-15.13-138.61,25.84-22.96,65.08-28.16,95.8-10.59,100.71,57.6,201.29,115.45,301.34,174.17,30.97,18.17,44.22,47.66,39.64,83.17-4.66,36.06-26.45,59.16-60.51,71-27.22,6.78-51.69,.45-75.44-13.73-39.28-23.45-79.25-45.75-118.93-68.53"/>
    <path class="cls-5" d="M364.41,477.26c-35.68,20.27-71.38,40.51-107.03,60.84-20.85,11.9-41.47,24.2-62.43,35.89-42.23,23.57-92.4,9.76-116.35-31.76-22.85-39.62-9.72-90.98,30.95-114.72,99.44-58.04,199.13-115.66,299.19-172.63,30.69-17.47,62.52-15.28,90.9,5.61,29.95,22.05,39.75,53.07,33.03,89.45-4.17,8.8-6.66,19.12-12.91,26.05-10.16,11.28-21.71,22.08-34.56,30.01-39.78,24.53-80.46,47.62-120.79,71.26"/>
    <path class="cls-2" d="M323.5,500c35.4,20.76,70.78,41.57,106.21,62.27,20.72,12.11,41.69,23.82,62.3,36.12,41.53,24.79,54.65,75.15,30.67,116.64-22.89,39.6-73.93,53.91-114.83,30.56-99.98-57.1-199.73-114.62-299.1-172.78-30.48-17.84-44.49-46.51-40.59-81.53,4.12-36.96,26.08-60.97,60.95-73.33,9.71-.78,19.89-3.79,29.02-1.84,14.85,3.16,29.97,7.76,43.27,14.93,41.14,22.18,81.47,45.87,122.11,68.97"/>
  </g>
  <g>
    <path class="cls-1" d="M1462.62,524.43c-16.04,5.76-47.7,15.21-85.12,15.21-41.94,0-76.48-10.69-103.62-36.6-23.85-23.03-38.65-60.03-38.65-103.21,.41-82.65,57.16-143.1,150.09-143.1,32.07,0,57.16,6.99,69.08,12.75l-8.64,29.19c-14.8-6.58-33.31-11.92-61.27-11.92-67.44,0-111.43,41.94-111.43,111.43s42.35,111.84,106.91,111.84c23.44,0,39.47-3.29,47.7-7.4v-82.65h-56.33v-28.78h91.29v133.23Z"/>
    <path class="cls-1" d="M1517.31,263.32c21.79-3.29,47.7-5.76,76.07-5.76,51.4,0,88,11.92,112.26,34.54,24.67,22.62,39.06,54.69,39.06,99.51s-13.98,82.24-39.89,107.73c-25.9,25.91-68.67,39.89-122.54,39.89-25.49,0-46.88-1.23-64.97-3.29V263.32Zm35.77,245.07c9.05,1.64,22.2,2.06,36.19,2.06,76.48,0,118.01-42.76,118.01-117.6,.41-65.38-36.6-106.91-112.26-106.91-18.5,0-32.48,1.64-41.94,3.7v218.76Z"/>
    <path class="cls-1" d="M1786.22,493.18c16.04,9.87,39.47,18.09,64.15,18.09,36.6,0,57.98-19.33,57.98-47.29,0-25.91-14.8-40.71-52.22-55.1-45.23-16.04-73.19-39.47-73.19-78.54,0-43.18,35.77-75.25,89.64-75.25,28.37,0,48.93,6.58,61.27,13.57l-9.87,29.19c-9.05-4.93-27.55-13.16-52.63-13.16-37.83,0-52.22,22.62-52.22,41.53,0,25.91,16.86,38.65,55.1,53.46,46.88,18.09,70.73,40.71,70.73,81.42,0,42.76-31.66,79.77-97.04,79.77-26.73,0-55.92-7.81-70.73-17.68l9.05-30.02Z"/>
    <path class="cls-1" d="M2187.55,527.72c-13.16,6.58-39.47,13.16-73.19,13.16-78.13,0-136.93-49.34-136.93-140.22s58.8-145.56,144.74-145.56c34.54,0,56.33,7.4,65.79,12.34l-8.64,29.19c-13.57-6.58-32.9-11.51-55.92-11.51-64.97,0-108.14,41.53-108.14,114.31,0,67.85,39.06,111.43,106.5,111.43,21.79,0,44-4.52,58.39-11.51l7.4,28.37Z"/>
    <path class="cls-1" d="M2319.53,259.62h35.77v247.13h118.42v30.02h-154.2V259.62Z"/>
    <path class="cls-1" d="M2513.61,262.91c17.27-2.88,39.89-5.35,68.67-5.35,35.36,0,61.27,8.22,77.72,23.03,15.21,13.16,24.26,33.31,24.26,57.98s-7.4,44.82-21.38,59.21c-18.91,20.15-49.75,30.43-84.71,30.43-10.69,0-20.56-.41-28.78-2.47v111.02h-35.77V262.91Zm35.77,133.64c7.81,2.06,17.68,2.88,29.61,2.88,43.17,0,69.49-20.97,69.49-59.21s-25.91-54.28-65.38-54.28c-15.62,0-27.55,1.23-33.72,2.88v107.73Z"/>
    <path class="cls-1" d="M2768.14,259.62v164.07c0,62.09,27.55,88.41,64.56,88.41,41.12,0,67.44-27.14,67.44-88.41v-164.07h36.19v161.6c0,85.12-44.82,120.07-104.85,120.07-56.75,0-99.51-32.48-99.51-118.42v-163.24h36.18Z"/>
    <path class="cls-1" d="M1232.59,708.57c8.48-1.28,18.56-2.24,29.61-2.24,20,0,34.25,4.64,43.69,13.44,9.6,8.8,15.2,21.29,15.2,38.73s-5.44,32.01-15.52,41.93c-10.08,10.08-26.73,15.52-47.69,15.52-9.92,0-18.24-.48-25.29-1.28v-106.1Zm13.92,95.38c3.52,.64,8.64,.8,14.08,.8,29.77,0,45.93-16.64,45.93-45.77,.16-25.45-14.24-41.61-43.69-41.61-7.2,0-12.64,.64-16.32,1.44v85.14Z"/>
    <path class="cls-1" d="M1354.37,715.77c.16,4.8-3.36,8.64-8.96,8.64-4.96,0-8.48-3.84-8.48-8.64s3.68-8.8,8.8-8.8,8.64,3.84,8.64,8.8Zm-15.68,99.22v-77.46h14.08v77.46h-14.08Z"/>
    <path class="cls-1" d="M1374.21,800.59c4.16,2.72,11.52,5.6,18.56,5.6,10.24,0,15.04-5.12,15.04-11.52,0-6.72-4-10.4-14.4-14.24-13.92-4.96-20.48-12.64-20.48-21.92,0-12.48,10.08-22.72,26.73-22.72,7.84,0,14.72,2.24,19.04,4.8l-3.52,10.24c-3.04-1.92-8.64-4.48-15.84-4.48-8.32,0-12.96,4.8-12.96,10.56,0,6.4,4.64,9.28,14.72,13.12,13.44,5.12,20.32,11.84,20.32,23.37,0,13.6-10.56,23.21-28.97,23.21-8.48,0-16.32-2.08-21.76-5.28l3.52-10.72Z"/>
    <path class="cls-1" d="M1494.71,812.11c-3.68,1.92-11.84,4.48-22.24,4.48-23.36,0-38.57-15.84-38.57-39.53s16.32-41.13,41.61-41.13c8.32,0,15.68,2.08,19.52,4l-3.2,10.88c-3.36-1.92-8.64-3.68-16.32-3.68-17.76,0-27.37,13.12-27.37,29.29,0,17.92,11.52,28.97,26.89,28.97,8,0,13.28-2.08,17.28-3.84l2.4,10.56Z"/>
    <path class="cls-1" d="M1580.33,775.63c0,28.65-19.84,41.13-38.57,41.13-20.96,0-37.13-15.36-37.13-39.85,0-25.93,16.96-41.13,38.41-41.13s37.29,16.16,37.29,39.85Zm-61.45,.8c0,16.96,9.76,29.77,23.52,29.77s23.53-12.64,23.53-30.09c0-13.12-6.56-29.77-23.21-29.77s-23.85,15.36-23.85,30.09Z"/>
    <path class="cls-1" d="M1598.09,761.7c0-9.12-.16-16.96-.64-24.17h12.32l.48,15.2h.64c3.52-10.4,12-16.96,21.44-16.96,1.6,0,2.72,.16,4,.48v13.28c-1.44-.32-2.88-.48-4.8-.48-9.92,0-16.96,7.52-18.88,18.08-.32,1.92-.64,4.16-.64,6.56v41.29h-13.92v-53.29Z"/>
    <path class="cls-1" d="M1715.71,701.37v93.62c0,6.88,.16,14.72,.64,20h-12.64l-.64-13.44h-.32c-4.32,8.64-13.76,15.2-26.41,15.2-18.72,0-33.13-15.84-33.13-39.37-.16-25.76,15.84-41.61,34.73-41.61,11.84,0,19.84,5.6,23.37,11.84h.32v-46.25h14.08Zm-14.08,67.69c0-1.76-.16-4.16-.64-5.92-2.08-8.96-9.76-16.32-20.32-16.32-14.56,0-23.21,12.8-23.21,29.93,0,15.68,7.68,28.65,22.89,28.65,9.44,0,18.08-6.24,20.64-16.8,.48-1.92,.64-3.84,.64-6.08v-13.44Z"/>
    <path class="cls-1" d="M1773.47,708.57c6.08-1.28,15.68-2.24,25.45-2.24,13.92,0,22.88,2.4,29.61,7.84,5.6,4.16,8.96,10.56,8.96,19.04,0,10.4-6.88,19.52-18.24,23.68v.32c10.24,2.56,22.25,11.04,22.25,27.05,0,9.28-3.68,16.32-9.12,21.6-7.52,6.88-19.68,10.08-37.29,10.08-9.6,0-16.96-.64-21.6-1.28v-106.1Zm13.92,44.17h12.64c14.72,0,23.37-7.68,23.37-18.08,0-12.64-9.6-17.6-23.69-17.6-6.4,0-10.08,.48-12.32,.96v34.73Zm0,51.69c2.72,.48,6.72,.64,11.68,.64,14.4,0,27.69-5.28,27.69-20.96,0-14.72-12.64-20.8-27.85-20.8h-11.52v41.13Z"/>
    <path class="cls-1" d="M1930.46,775.63c0,28.65-19.84,41.13-38.57,41.13-20.96,0-37.13-15.36-37.13-39.85,0-25.93,16.96-41.13,38.41-41.13s37.29,16.16,37.29,39.85Zm-61.45,.8c0,16.96,9.76,29.77,23.52,29.77s23.53-12.64,23.53-30.09c0-13.12-6.56-29.77-23.21-29.77s-23.85,15.36-23.85,30.09Z"/>
    <path class="cls-1" d="M1965.18,715.29v22.24h20.16v10.72h-20.16v41.77c0,9.6,2.72,15.04,10.56,15.04,3.68,0,6.4-.48,8.16-.96l.64,10.56c-2.72,1.12-7.04,1.92-12.48,1.92-6.56,0-11.84-2.08-15.2-5.92-4-4.16-5.44-11.04-5.44-20.16v-42.25h-12v-10.72h12v-18.56l13.76-3.68Z"/>
  </g>
</svg>