<?xml version="1.0" encoding="UTF-8"?>
<svg id="Layer_1" data-name="Layer 1" xmlns="http://www.w3.org/2000/svg" viewBox="0 0 5000 1000">
  <defs>
    <style>
      .cls-1 {
        letter-spacing: 0em;
      }

      .cls-2 {
        fill: #4385f3;
      }

      .cls-3 {
        fill: #109d58;
      }

      .cls-4 {
        font-size: 411.2px;
      }

      .cls-5 {
        letter-spacing: 0em;
      }

      .cls-6 {
        fill: #fff;
        font-family: MyriadPro-Regular, 'Myriad Pro';
      }

      .cls-7 {
        letter-spacing: 0em;
      }

      .cls-8 {
        letter-spacing: 0em;
      }

      .cls-9 {
        font-size: 160.03px;
      }

      .cls-10 {
        fill: #fabc05;
      }

      .cls-11 {
        fill: #e94436;
      }
    </style>
  </defs>
  <g>
    <path class="cls-10" d="M830.3,523.37c55.75-32.02,111.35-64.3,167.28-95.99,53.09-30.08,115.56-2.34,127.6,56.2,6.97,33.86-8.15,70.45-38.73,88.27-100.24,58.41-200.62,116.59-301.5,173.89-31.22,17.73-63.39,14.47-91.84-7.26-28.91-22.06-38.02-52.49-31.24-87.91,7.74-26.96,25.45-44.99,49.61-58.47,39.94-22.29,79.24-45.76,118.81-68.73"/>
    <path class="cls-3" d="M871.23,500.09c-55.61-32.27-111.35-64.28-166.77-96.88-52.6-30.94-59.8-98.91-15.13-138.61,25.84-22.96,65.08-28.16,95.8-10.59,100.71,57.6,201.29,115.45,301.34,174.17,30.97,18.17,44.22,47.66,39.64,83.17-4.66,36.06-26.45,59.16-60.51,71-27.22,6.78-51.69,.45-75.44-13.73-39.28-23.45-79.25-45.75-118.93-68.53"/>
    <path class="cls-11" d="M364.41,477.26c-35.68,20.27-71.38,40.51-107.03,60.84-20.85,11.9-41.47,24.2-62.43,35.89-42.23,23.57-92.4,9.76-116.35-31.76-22.85-39.62-9.72-90.98,30.95-114.72,99.44-58.04,199.13-115.66,299.19-172.63,30.69-17.47,62.52-15.28,90.9,5.61,29.95,22.05,39.75,53.07,33.03,89.45-4.17,8.8-6.66,19.12-12.91,26.05-10.16,11.28-21.71,22.08-34.56,30.01-39.78,24.53-80.46,47.62-120.79,71.26"/>
    <path class="cls-2" d="M323.5,500c35.4,20.76,70.78,41.57,106.21,62.27,20.72,12.11,41.69,23.82,62.3,36.12,41.53,24.79,54.65,75.15,30.67,116.64-22.89,39.6-73.93,53.91-114.83,30.56-99.98-57.1-199.73-114.62-299.1-172.78-30.48-17.84-44.49-46.51-40.59-81.53,4.12-36.96,26.08-60.97,60.95-73.33,9.71-.78,19.89-3.79,29.02-1.84,14.85,3.16,29.97,7.76,43.27,14.93,41.14,22.18,81.47,45.87,122.11,68.97"/>
  </g>
  <text class="cls-6" transform="translate(1220.43 536.76)"><tspan class="cls-4"><tspan x="0" y="0">GDSC LPU</tspan></tspan><tspan class="cls-9"><tspan x="0" y="278.23">Dis</tspan><tspan class="cls-1" x="207.39" y="278.23">c</tspan><tspan class="cls-5" x="278.12" y="278.23">o</tspan><tspan class="cls-7" x="365.98" y="278.23">r</tspan><tspan x="416.71" y="278.23">d </tspan><tspan class="cls-8" x="540.89" y="278.23">B</tspan><tspan x="628.26" y="278.23">ot</tspan></tspan></text>
  <text/>
</svg>